# xmcd CD database file
#
# Track frame offsets:
#	150
#	14132
#	29569
#	41541
#	55035
#	67652
#	79999
#	93591
#	106230
#	120737
#	132634
#	145446
#	156653
#	169487
#	183431
#	197968
#
# Disc length: 2830 seconds
#
# Revision: 0
# Processed by: cddbd v1.5.2PL0 Copyright (c) Steve Scherf et al.
# Submitted via: CDex 2.14
#
DISCID=f20b0c10
DTITLE=Lil Green - 1947-1951
DYEAR=2005
DGENRE=Blues
TTITLE0=I Want A Good Man Bad
TTITLE1=You've Been A Good Old Wagon
TTITLE2=I Want A Man
TTITLE3=Lonely Woman
TTITLE4=Take Me Back To Little Rock
TTITLE5=Aggravatin' Papa
TTITLE6=Daddy Daddy Blues
TTITLE7=Outside Of That
TTITLE8=I Gotta Have It
TTITLE9=Walkin' And Talkin'
TTITLE10=Rock Me Baby
TTITLE11=Them There Eyes
TTITLE12=Running Around In Circles
TTITLE13=My Be-Bop Daddy
TTITLE14=Every Time
TTITLE15=I've Got That Feeling
EXTD=YEAR: 2005
EXTT0=
EXTT1=
EXTT2=
EXTT3=
EXTT4=
EXTT5=
EXTT6=
EXTT7=
EXTT8=
EXTT9=
EXTT10=
EXTT11=
EXTT12=
EXTT13=
EXTT14=
EXTT15=
PLAYORDER=
